<svg id="Capa_1" enable-background="new 0 0 512 512" height="512" viewBox="0 0 512 512" width="512" xmlns="http://www.w3.org/2000/svg" xmlns:xlink="http://www.w3.org/1999/xlink"><linearGradient id="SVGID_1_" gradientUnits="userSpaceOnUse" x1="74.98" x2="437.019" y1="437.018" y2="74.98"><stop offset="0" stop-color="#560dff"/><stop offset="1" stop-color="#73ecff"/></linearGradient><radialGradient id="SVGID_2_" cx="256" cy="256" gradientUnits="userSpaceOnUse" r="256"><stop offset="0" stop-color="#6b23ea"/><stop offset=".139" stop-color="#6341e5" stop-opacity=".861"/><stop offset=".4345" stop-color="#537cdb" stop-opacity=".566"/><stop offset=".687" stop-color="#47a7d3" stop-opacity=".313"/><stop offset=".8835" stop-color="#40c1cf" stop-opacity=".117"/><stop offset="1" stop-color="#3dcbcd" stop-opacity="0"/></radialGradient><linearGradient id="lg1"><stop offset="0" stop-color="#85ffe0"/><stop offset=".2339" stop-color="#9dffe6"/><stop offset=".7251" stop-color="#dafff6"/><stop offset="1" stop-color="#fff"/></linearGradient><linearGradient id="SVGID_3_" gradientTransform="matrix(.707 .707 -.707 .707 -610.606 582.133)" gradientUnits="userSpaceOnUse" x1="382.173" x2="382.173" xlink:href="#lg1" y1="-538.703" y2="-1617.075"/><linearGradient id="lg2"><stop offset="0" stop-color="#389fff"/><stop offset=".1074" stop-color="#45affa"/><stop offset=".5089" stop-color="#73e9e7"/><stop offset=".7022" stop-color="#85ffe0"/><stop offset=".8313" stop-color="#9dffe6"/><stop offset="1" stop-color="#c2fff0"/></linearGradient><linearGradient id="SVGID_4_" gradientTransform="matrix(.707 .707 -.707 .707 -610.606 582.133)" gradientUnits="userSpaceOnUse" x1="382.172" x2="382.172" xlink:href="#lg2" y1="-195.379" y2="-1058.52"/><linearGradient id="SVGID_5_" gradientTransform="matrix(.707 .707 -.707 .707 -610.606 582.133)" gradientUnits="userSpaceOnUse" x1="382.172" x2="382.172" xlink:href="#lg2" y1="-330.231" y2="-1151.658"/><linearGradient id="SVGID_6_" gradientTransform="matrix(.707 .707 -.707 .707 -610.606 582.133)" gradientUnits="userSpaceOnUse" x1="382.172" x2="382.172" y1="-560.67" y2="-1071.417"><stop offset="0" stop-color="#3dcbcd" stop-opacity="0"/><stop offset=".1264" stop-color="#3ec6ce" stop-opacity=".126"/><stop offset=".2856" stop-color="#43b6d1" stop-opacity=".286"/><stop offset=".4625" stop-color="#4a9cd5" stop-opacity=".463"/><stop offset=".6522" stop-color="#5478db" stop-opacity=".652"/><stop offset=".8498" stop-color="#604be3" stop-opacity=".85"/><stop offset="1" stop-color="#6b23ea"/></linearGradient><linearGradient id="SVGID_7_" gradientTransform="matrix(.707 .707 -.707 .707 -610.606 582.133)" gradientUnits="userSpaceOnUse" x1="382.185" x2="382.185" xlink:href="#lg1" y1="-174.89" y2="-1031.107"/><linearGradient id="SVGID_8_" gradientTransform="matrix(.707 .707 -.707 .707 -610.606 582.133)" gradientUnits="userSpaceOnUse" x1="382.172" x2="382.172" xlink:href="#lg1" y1="-374.818" y2="-1262.919"/><g><circle cx="256" cy="256" fill="url(#SVGID_1_)" r="256"/><circle cx="256" cy="256" fill="url(#SVGID_2_)" r="256"/><path d="m209.067 302.933c-30.472 3.171-60.931 6.27-91.37 9.231-.192.083-18.197 71.69-17.98 71.602-1.817 7.509.391 15.931 6.486 22.031 6.098 6.092 14.522 8.308 22.035 6.491 23.763-5.752 47.636-11.772 71.598-17.984 2.963-30.439 6.06-60.898 9.231-91.371z" fill="url(#SVGID_3_)"/><path d="m347.353 164.648c-69.727 25.111-140.61 52.485-211.595 79.328-6.477 24.016-12.708 47.529-18.06 68.189 18.768 18.562 46.792 23.194 69.705 12.433-10.761 22.912-6.127 50.935 12.434 69.707 20.661-5.353 44.17-11.586 68.188-18.062 26.842-70.985 54.216-141.868 79.328-211.595z" fill="url(#SVGID_4_)"/><path d="m301.997 171.075c-31.257 31.418-63.154 63.385-95.019 95.229-32.608 41.888-65.146 83.607-96.422 124.228-5.322 6.907 4.002 16.238 10.913 10.912 40.62-31.277 82.338-63.814 124.227-96.422 31.844-31.865 63.811-63.762 95.229-95.019-13.001-12.936-25.992-25.926-38.928-38.928z" fill="url(#SVGID_5_)"/><path d="m135.757 243.976c-19.7 72.389-36.133 139.816-36.041 139.791-1.817 7.509.391 15.931 6.486 22.031 6.098 6.092 14.522 8.308 22.035 6.491-.025.09 67.396-16.342 139.786-36.045 26.842-70.985 54.216-141.868 79.328-211.595-69.726 25.11-140.608 52.484-211.594 79.327z" fill="url(#SVGID_6_)"/><path d="m411.505 129.261c1.667-7.411-.679-15.781-6.828-21.937-6.152-6.152-14.53-8.497-21.932-6.824-.001-.024-50.722 11.332-111.482 27.235 37.186 37.796 75.216 75.845 112.991 113.051 15.908-60.781 27.269-111.527 27.251-111.525z" fill="url(#SVGID_7_)"/><path d="m331.084 434.365c-.136-.001 30.679-107.079 53.17-193.58 16.989-66.321-46.676-129.998-112.991-113.051-86.511 22.491-193.63 53.317-193.632 53.176-4.116 1.163-8.028 3.451-11.213 6.854-8.574 9.163-8.173 23.045.475 31.513 23.853 23.366 48.093 47.276 72.422 71.43 10.996 10.916 28.4 12.083 40.618 2.602 41.841-32.443 83.941-65.322 125.375-97.451 7.054-5.472 16.304 3.779 10.833 10.833-32.129 41.433-65.009 83.534-97.45 125.375-9.48 12.218-8.312 29.625 2.601 40.618 24.155 24.33 48.065 48.57 71.432 72.425 8.465 8.646 22.35 9.049 31.51.475 3.404-3.178 5.688-7.096 6.85-11.219z" fill="url(#SVGID_8_)"/></g></svg>